<?xml version="1.0" encoding="UTF-8"?>
<svg width="300px" height="250px" viewBox="0 0 300 250" version="1.1" xmlns="http://www.w3.org/2000/svg" xmlns:xlink="http://www.w3.org/1999/xlink">
    <!-- Generator: Sketch 50.2 (55047) - http://www.bohemiancoding.com/sketch -->
    <title>Github Logo</title>
    <desc>Created with Sketch.</desc>
    <defs></defs>
    <g id="Github-Logo" stroke="none" stroke-width="1" fill="none" fill-rule="evenodd">
        <path d="M66.8515625,60 L48.609375,60 L43.140625,35.1171875 C42.880207,34.0755156 42.4700549,32.0052238 41.9101563,28.90625 C41.3502576,25.8072762 40.9401055,23.2161562 40.6796875,21.1328125 C40.4713531,22.8255293 40.1328148,24.9283729 39.6640625,27.4414062 C39.1953102,29.9544396 38.7330752,32.2656145 38.2773438,34.375 C37.8216123,36.4843855 35.9271,45.0259668 32.59375,60 L14.3515625,60 L0.2109375,2.890625 L15.09375,2.890625 L21.3046875,31.5234375 C22.7109445,37.8515941 23.6744766,42.8906062 24.1953125,46.640625 C24.5338559,43.9843617 25.1393186,40.377627 26.0117188,35.8203125 C26.8841189,31.262998 27.6979129,27.4869941 28.453125,24.4921875 L33.4921875,2.890625 L47.7890625,2.890625 L52.671875,24.4921875 C53.5052125,27.9557465 54.3515582,31.9531023 55.2109375,36.484375 C56.0703168,41.0156477 56.6432277,44.4010305 56.9296875,46.640625 C57.2682309,43.7499855 58.1927008,38.7370148 59.703125,31.6015625 L66.03125,2.890625 L80.9140625,2.890625 L66.8515625,60 Z M128.0625,37.7734375 C128.0625,45.013057 126.115905,50.6575318 122.222656,54.7070312 C118.329408,58.7565307 112.880243,60.78125 105.875,60.78125 C99.1562164,60.78125 93.8112178,58.7109582 89.8398438,54.5703125 C85.8684697,50.4296668 83.8828125,44.8307645 83.8828125,37.7734375 C83.8828125,30.5598598 85.8294076,24.9544471 89.7226562,20.9570312 C93.6159049,16.9596154 99.0780898,14.9609375 106.109375,14.9609375 C110.458355,14.9609375 114.299463,15.8854074 117.632812,17.734375 C120.966162,19.5833426 123.537751,22.2330557 125.347656,25.6835938 C127.157561,29.1341318 128.0625,33.1640395 128.0625,37.7734375 Z M99.390625,37.7734375 C99.390625,41.5755398 99.8984324,44.4726463 100.914062,46.4648438 C101.929693,48.4570412 103.635405,49.453125 106.03125,49.453125 C108.401054,49.453125 110.074214,48.4570412 111.050781,46.4648438 C112.027349,44.4726463 112.515625,41.5755398 112.515625,37.7734375 C112.515625,33.997377 112.020838,31.145843 111.03125,29.21875 C110.041662,27.291657 108.34897,26.328125 105.953125,26.328125 C103.609363,26.328125 101.929693,27.2851467 100.914062,29.1992188 C99.8984324,31.1132908 99.390625,33.9713352 99.390625,37.7734375 Z M163.492188,14.9609375 C164.820319,14.9609375 166.083327,15.0651031 167.28125,15.2734375 L168.140625,15.4296875 L166.773438,29.84375 C165.523431,29.5312484 163.791678,29.375 161.578125,29.375 C158.244775,29.375 155.822924,30.1367111 154.3125,31.6601562 C152.802076,33.1836014 152.046875,35.3775898 152.046875,38.2421875 L152.046875,60 L136.773438,60 L136.773438,15.7421875 L148.140625,15.7421875 L150.523438,22.8125 L151.265625,22.8125 C152.541673,20.4687383 154.318999,18.574226 156.597656,17.1289062 C158.876313,15.6835865 161.174468,14.9609375 163.492188,14.9609375 Z M189.117188,35.1171875 C190.966155,32.1744645 192.54166,29.8828207 193.84375,28.2421875 L203.765625,15.7421875 L220.796875,15.7421875 L205.445312,34.5703125 L221.773438,60 L204.3125,60 L194.625,44.140625 L189.664062,47.9296875 L189.664062,60 L174.3125,60 L174.3125,-0.78125 L189.664062,-0.78125 L189.664062,23.125 C189.664062,27.2135621 189.377607,31.210918 188.804688,35.1171875 L189.117188,35.1171875 Z M261.226562,46.40625 C261.226562,51.145857 259.611995,54.7265504 256.382812,57.1484375 C253.15363,59.5703246 248.518259,60.78125 242.476562,60.78125 C239.195296,60.78125 236.343762,60.6054705 233.921875,60.2539062 C231.499988,59.902342 229.026054,59.2578172 226.5,58.3203125 L226.5,46.09375 C228.869804,47.1354219 231.467434,47.9947883 234.292969,48.671875 C237.118504,49.3489617 239.63801,49.6875 241.851562,49.6875 C245.158871,49.6875 246.8125,48.9322992 246.8125,47.421875 C246.8125,46.6406211 246.350265,45.9440135 245.425781,45.3320312 C244.501297,44.720049 241.812522,43.5286547 237.359375,41.7578125 C233.296855,40.0911375 230.458341,38.1966252 228.84375,36.0742188 C227.229159,33.9518123 226.421875,31.2630371 226.421875,28.0078125 C226.421875,23.8932086 228.010401,20.6901156 231.1875,18.3984375 C234.364599,16.1067594 238.856742,14.9609375 244.664062,14.9609375 C247.580744,14.9609375 250.321602,15.2799447 252.886719,15.9179688 C255.451836,16.5559928 258.11457,17.486973 260.875,18.7109375 L256.734375,28.5546875 C254.703115,27.6432246 252.554699,26.8684928 250.289062,26.2304688 C248.023426,25.5924447 246.174486,25.2734375 244.742188,25.2734375 C242.242175,25.2734375 240.992188,25.8854105 240.992188,27.109375 C240.992188,27.8645871 241.428381,28.5091119 242.300781,29.0429688 C243.173181,29.5768256 245.692687,30.6640543 249.859375,32.3046875 C252.958349,33.5807355 255.269524,34.830723 256.792969,36.0546875 C258.316414,37.278652 259.436194,38.7174396 260.152344,40.3710938 C260.868493,42.0247479 261.226562,44.0364465 261.226562,46.40625 Z M31.3046875,105.1875 L21.890625,105.1875 L21.890625,138 L6.6171875,138 L6.6171875,105.1875 L0.7578125,105.1875 L0.7578125,97.6875 L6.9296875,93.9375 L6.9296875,93.1953125 C6.9296875,87.36195 8.12108184,83.1692836 10.5039062,80.6171875 C12.8867307,78.0650914 16.708307,76.7890625 21.96875,76.7890625 C24.0000102,76.7890625 25.9205639,76.9453109 27.7304688,77.2578125 C29.5403736,77.5703141 31.6432172,78.1171836 34.0390625,78.8984375 L30.7578125,88.78125 C28.8828031,88.2604141 27.046884,88 25.25,88 C24.0781191,88 23.2252631,88.3580693 22.6914062,89.0742188 C22.1575494,89.7903682 21.890625,90.9557211 21.890625,92.5703125 L21.890625,93.7421875 L31.3046875,93.7421875 L31.3046875,105.1875 Z M79.5859375,115.773438 C79.5859375,123.013057 77.6393424,128.657532 73.7460938,132.707031 C69.8528451,136.756531 64.4036809,138.78125 57.3984375,138.78125 C50.6796539,138.78125 45.3346553,136.710958 41.3632812,132.570312 C37.3919072,128.429667 35.40625,122.830764 35.40625,115.773438 C35.40625,108.55986 37.3528451,102.954447 41.2460938,98.9570312 C45.1393424,94.9596154 50.6015273,92.9609375 57.6328125,92.9609375 C61.9817926,92.9609375 65.8229,93.8854074 69.15625,95.734375 C72.4896,97.5833426 75.0611889,100.233056 76.8710938,103.683594 C78.6809986,107.134132 79.5859375,111.164039 79.5859375,115.773438 Z M50.9140625,115.773438 C50.9140625,119.57554 51.4218699,122.472646 52.4375,124.464844 C53.4531301,126.457041 55.1588422,127.453125 57.5546875,127.453125 C59.924491,127.453125 61.5976514,126.457041 62.5742188,124.464844 C63.5507861,122.472646 64.0390625,119.57554 64.0390625,115.773438 C64.0390625,111.997377 63.5442758,109.145843 62.5546875,107.21875 C61.5650992,105.291657 59.8724078,104.328125 57.4765625,104.328125 C55.1328008,104.328125 53.4531301,105.285147 52.4375,107.199219 C51.4218699,109.113291 50.9140625,111.971335 50.9140625,115.773438 Z M115.015625,92.9609375 C116.343757,92.9609375 117.606765,93.0651031 118.804688,93.2734375 L119.664062,93.4296875 L118.296875,107.84375 C117.046869,107.531248 115.315115,107.375 113.101562,107.375 C109.768213,107.375 107.346362,108.136711 105.835938,109.660156 C104.325513,111.183601 103.570312,113.37759 103.570312,116.242188 L103.570312,138 L88.296875,138 L88.296875,93.7421875 L99.6640625,93.7421875 L102.046875,100.8125 L102.789062,100.8125 C104.065111,98.4687383 105.842437,96.574226 108.121094,95.1289062 C110.399751,93.6835865 112.697905,92.9609375 115.015625,92.9609375 Z M58.609375,216 L58.609375,191.9375 C58.609375,188.942693 58.1992229,186.696622 57.3789062,185.199219 C56.5585896,183.701815 55.2630297,182.953125 53.4921875,182.953125 C51.1484258,182.953125 49.429693,183.955719 48.3359375,185.960938 C47.242182,187.966156 46.6953125,191.104145 46.6953125,195.375 L46.6953125,216 L31.3828125,216 L31.3828125,191.9375 C31.3828125,188.942693 30.9921914,186.696622 30.2109375,185.199219 C29.4296836,183.701815 28.1666754,182.953125 26.421875,182.953125 C24.0260297,182.953125 22.2812555,184.020823 21.1875,186.15625 C20.0937445,188.291677 19.546875,191.781226 19.546875,196.625 L19.546875,216 L4.2734375,216 L4.2734375,171.742188 L15.796875,171.742188 L17.7109375,177.210938 L18.609375,177.210938 C19.7812559,175.179677 21.4804576,173.630214 23.7070312,172.5625 C25.9336049,171.494786 28.4661316,170.960938 31.3046875,170.960938 C37.6849277,170.960938 42.1640496,172.901022 44.7421875,176.78125 L45.953125,176.78125 C47.2031312,174.958324 48.9413951,173.532557 51.1679688,172.503906 C53.3945424,171.475255 55.8489449,170.960938 58.53125,170.960938 C63.7656512,170.960938 67.6328,172.30207 70.1328125,174.984375 C72.632825,177.66668 73.8828125,181.74216 73.8828125,187.210938 L73.8828125,216 L58.609375,216 Z M105.640625,216.78125 C98.2707965,216.78125 92.5481975,214.821634 88.4726562,210.902344 C84.397115,206.983053 82.359375,201.403682 82.359375,194.164062 C82.359375,186.690067 84.247377,180.954447 88.0234375,176.957031 C91.799498,172.959615 97.1900691,170.960938 104.195312,170.960938 C110.862012,170.960938 116.011701,172.699201 119.644531,176.175781 C123.277362,179.652361 125.09375,184.658821 125.09375,191.195312 L125.09375,197.992188 L97.7890625,197.992188 C97.8932297,200.466158 98.7981686,202.406243 100.503906,203.8125 C102.209644,205.218757 104.533839,205.921875 107.476562,205.921875 C110.158868,205.921875 112.626291,205.667971 114.878906,205.160156 C117.131522,204.652341 119.572904,203.786464 122.203125,202.5625 L122.203125,213.539062 C119.80728,214.763027 117.333346,215.609373 114.78125,216.078125 C112.229154,216.546877 109.182309,216.78125 105.640625,216.78125 Z M104.742188,181.351562 C102.945304,181.351562 101.441412,181.917963 100.230469,183.050781 C99.0195252,184.183599 98.3098969,185.960925 98.1015625,188.382812 L111.226562,188.382812 C111.174479,186.247385 110.569016,184.541673 109.410156,183.265625 C108.251296,181.989577 106.695322,181.351562 104.742188,181.351562 Z" id="Works-for-me" fill="#000000"></path>
    </g>
</svg>